<?xml version="1.0" encoding="UTF-8"?>
<svg width="183px" height="36px" viewBox="0 0 183 36" version="1.1" xmlns="http://www.w3.org/2000/svg" xmlns:xlink="http://www.w3.org/1999/xlink">
    <title>logo</title>
    <g id="Symbols" stroke="none" stroke-width="1" fill="none" fill-rule="evenodd">
        <g id="Nav---core" fill="#BA9052">
            <path d="M176.266446,35.8410857 L176.266446,33.7767429 L176.315241,33.7767429 L178.016877,35.5724571 C178.261883,35.6089714 178.482319,35.6334857 178.75155,35.6334857 C179.52299,35.6334857 179.914552,35.3281714 179.914552,34.8394286 C179.914552,34.5341143 179.65752,34.1676 178.886251,33.8134286 L177.625315,33.2271429 C176.670378,32.7750857 176.290843,32.2988571 176.290843,31.5291429 C176.290843,30.3930857 177.404879,29.7579429 178.665987,29.7579429 C179.437084,29.7579429 180.392193,29.8311429 180.857291,29.9412 L180.857291,31.8224571 L180.820694,31.8224571 L179.057549,30.1854857 C178.849483,30.1488 178.678186,30.1242857 178.518915,30.1242857 C177.992652,30.1242857 177.637514,30.3565714 177.637514,30.7841143 C177.637514,31.1994857 177.918944,31.4681143 178.739523,31.8466286 L180.073823,32.4942857 C180.88186,32.8729714 181.334759,33.2881714 181.334759,34.0332 C181.334759,35.5601143 179.828989,36 178.555683,36 C177.870149,36 176.903013,35.9266286 176.266446,35.8410857 L176.266446,35.8410857 Z M171.258611,35.8777714 L167.744862,35.8777714 L167.744862,35.8044 L168.626607,35.1205714 L168.626607,30.8573143 L167.744862,29.9533714 L167.744862,29.8801714 L170.37721,29.8801714 L170.37721,30.6864 L170.413978,30.6618857 C171.56461,30.0634286 172.262515,29.8068 172.972446,29.8068 C174.245753,29.8068 174.735592,30.3930857 174.735592,32.1154286 L174.735592,35.1205714 L175.617164,35.8044 L175.617164,35.8777714 L172.103416,35.8777714 L172.103416,35.8044 L172.984817,35.1205714 L172.984817,32.0422286 C172.984817,31.0894286 172.715414,30.6864 171.907549,30.6864 C171.381114,30.6864 170.915844,30.8694857 170.413978,31.0894286 L170.37721,31.1017714 L170.37721,35.1205714 L171.258611,35.8044 L171.258611,35.8777714 Z M165.467137,33.0925714 C165.467137,31.6757143 164.940701,30.1488 163.802096,30.1488 C162.883927,30.1488 162.467796,31.2605143 162.467796,32.5918286 C162.467796,34.0820571 163.030999,35.6089714 164.132836,35.6089714 C164.989668,35.6089714 165.467137,34.4972571 165.467137,33.0925714 L165.467137,33.0925714 Z M160.606717,32.9338286 C160.606717,30.9548571 162.25973,29.7579429 164.04693,29.7579429 C165.932406,29.7579429 167.315845,31.0894286 167.315845,32.8361143 C167.315845,34.8027429 165.663003,36 163.875804,36 C162.002355,36 160.606717,34.6805143 160.606717,32.9338286 L160.606717,32.9338286 Z M157.386941,27.6936 C157.386941,27.0951429 157.864581,26.6797714 158.427612,26.6797714 C158.990644,26.6797714 159.480483,27.0951429 159.480483,27.6936 C159.480483,28.3289143 158.990644,28.7076 158.427612,28.7076 C157.864581,28.7076 157.386941,28.3289143 157.386941,27.6936 L157.386941,27.6936 Z M156.664638,35.8777714 L156.664638,35.8044 L157.546039,35.0958857 L157.546039,30.7719429 L156.664638,29.9533714 L156.664638,29.8801714 L159.296643,29.8801714 L159.296643,35.0958857 L160.178044,35.8044 L160.178044,35.8777714 L156.664638,35.8777714 Z M154.129709,36 C152.709846,36 152.477039,35.0837143 152.477039,33.8989714 L152.477039,30.4054286 L151.534473,30.4054286 L151.534473,29.8801714 L152.477039,29.8801714 L154.019577,28.2310286 L154.227814,28.2310286 L154.227814,29.8801714 L156.161913,29.8801714 L156.161913,30.4054286 L154.227814,30.4054286 L154.227814,34.1065714 C154.227814,34.8272571 154.497045,35.1325714 155.19495,35.1325714 C155.427413,35.1325714 155.868113,35.0593714 156.260191,34.9006286 L156.260191,35.0837143 C155.74561,35.6334857 154.864381,36 154.129709,36 L154.129709,36 Z M148.963118,34.7660571 L148.963118,32.6041714 L147.236913,33.3493714 C147.114238,33.5324571 146.979709,33.7889143 146.979709,34.1676 C146.979709,34.8027429 147.347045,35.2059429 147.971242,35.2059429 C148.350949,35.2059429 148.718113,34.9983429 148.963118,34.7660571 L148.963118,34.7660571 Z M149.011913,35.0715429 C148.571213,35.5234286 147.87348,36 147.004278,36 C145.829077,36 145.204536,35.2181143 145.204536,34.4364 C145.204536,33.8622857 145.486138,33.3858857 145.682005,33.1661143 L148.963118,32.3108571 L148.963118,32.1030857 C148.963118,30.6864 148.632378,30.1488 147.469376,30.1488 L147.322476,30.1488 L145.669806,32.0542286 L145.620839,32.0542286 L145.620839,29.8801714 C146.551207,29.8189714 147.396012,29.7579429 148.265042,29.7579429 C150.493457,29.7579429 150.72592,30.9672 150.72592,32.6285143 L150.72592,35.0958857 L151.607493,35.8044 L151.607493,35.8777714 L149.011913,35.8777714 L149.011913,35.0715429 Z M142.082178,34.9006286 L142.082178,30.6864 C141.76398,30.4299429 141.384617,30.3077143 140.992539,30.3077143 C139.976609,30.3077143 139.315472,31.3458857 139.315472,32.8729714 C139.315472,34.3141714 140.025575,35.1937714 141.041506,35.1937714 C141.384617,35.1937714 141.739582,35.0837143 142.082178,34.9006286 L142.082178,34.9006286 Z M142.143515,35.2302857 C141.555914,35.6454857 140.931374,36 140.184674,36 C138.580799,36 137.503703,34.9248 137.503703,33.0438857 C137.503703,30.5153143 139.327671,29.7579429 140.576408,29.7579429 C141.15181,29.7579429 141.604709,29.8923429 142.082178,30.1488 L142.082178,27.6936 L141.200777,26.7894857 L141.200777,26.7162857 L143.833124,26.7162857 L143.833124,35.0958857 L144.714353,35.8044 L144.714353,35.8777714 L142.143515,35.8777714 L142.143515,35.2302857 Z M132.654795,35.8777714 L129.141218,35.8777714 L129.141218,35.8044 L130.022791,35.1205714 L130.022791,30.8573143 L129.141218,29.9533714 L129.141218,29.8801714 L131.773394,29.8801714 L131.773394,30.6864 L131.809991,30.6618857 C132.960794,30.0634286 133.658699,29.8068 134.368802,29.8068 C135.642109,29.8068 136.131776,30.3930857 136.131776,32.1154286 L136.131776,35.1205714 L137.013177,35.8044 L137.013177,35.8777714 L133.4996,35.8777714 L133.4996,35.8044 L134.381001,35.1205714 L134.381001,32.0422286 C134.381001,31.0894286 134.111598,30.6864 133.303733,30.6864 C132.777298,30.6864 132.312028,30.8694857 131.809991,31.0894286 L131.773394,31.1017714 L131.773394,35.1205714 L132.654795,35.8044 L132.654795,35.8777714 Z M123.655915,35.9511429 C122.19894,35.9511429 121.929709,35.2059429 121.929709,33.6666857 L121.929709,30.6375429 L121.047965,29.9533714 L121.047965,29.8801714 L123.680312,29.8558286 L123.680312,33.7400571 C123.680312,34.6930286 123.961914,35.0958857 124.769779,35.0958857 C125.210651,35.0958857 125.614584,34.9373143 126.067483,34.7172 L126.067483,30.6375429 L125.112718,29.9533714 L125.112718,29.8801714 L127.830629,29.8558286 L127.830629,35.0837143 L128.712029,35.8044 L128.712029,35.8777714 L126.12882,35.8777714 L126.12882,35.1205714 L126.079682,35.1447429 C125.271817,35.6701714 124.512747,35.9511429 123.655915,35.9511429 L123.655915,35.9511429 Z M118.807007,33.0925714 C118.807007,31.6757143 118.280744,30.1488 117.142139,30.1488 C116.22397,30.1488 115.807667,31.2605143 115.807667,32.5918286 C115.807667,34.0820571 116.371042,35.6089714 117.472879,35.6089714 C118.329539,35.6089714 118.807007,34.4972571 118.807007,33.0925714 L118.807007,33.0925714 Z M113.946759,32.9338286 C113.946759,30.9548571 115.599601,29.7579429 117.386972,29.7579429 C119.272277,29.7579429 120.655715,31.0894286 120.655715,32.8361143 C120.655715,34.8027429 119.002874,36 117.215675,36 C115.342397,36 113.946759,34.6805143 113.946759,32.9338286 L113.946759,32.9338286 Z M110.322363,35.8777714 L106.551582,35.8777714 L106.551582,35.8044 L107.432983,35.0593714 L107.432983,27.5592 L106.551582,26.7894857 L106.551582,26.7162857 L113.713609,26.7162857 L113.713609,29.2448571 L113.664642,29.2448571 L111.975033,27.2537143 L109.245095,27.2537143 L109.245095,31.1382857 L111.718001,31.1382857 L112.746302,30.0754286 L112.79544,30.0754286 L112.79544,32.8482857 L112.746302,32.8482857 L111.718001,31.6635429 L109.245095,31.6635429 L109.245095,35.0593714 L110.322363,35.8044 L110.322363,35.8777714 Z M177.331515,22.3162286 L177.331515,20.2518857 L177.380482,20.2518857 L179.082118,22.0476 C179.326952,22.0842857 179.54756,22.1088 179.816619,22.1088 C180.58806,22.1088 180.979793,21.8033143 180.979793,21.3147429 C180.979793,21.0092571 180.722761,20.6429143 179.951492,20.2885714 L178.690384,19.7022857 C177.735447,19.2504 177.355912,18.774 177.355912,18.0042857 C177.355912,16.8682286 178.469948,16.2330857 179.731056,16.2330857 C180.502325,16.2330857 181.457262,16.3064571 181.922532,16.4163429 L181.922532,18.2976 L181.885764,18.2976 L180.12279,16.6606286 C179.914552,16.6239429 179.743255,16.5996 179.584328,16.5996 C179.057721,16.5996 178.702755,16.8317143 178.702755,17.2592571 C178.702755,17.6746286 178.984185,17.9434286 179.804592,18.3219429 L181.138892,18.9694286 C181.947101,19.3481143 182.4,19.7634857 182.4,20.5085143 C182.4,22.0354286 180.89423,22.4751429 179.620752,22.4751429 C178.935218,22.4751429 177.968082,22.4017714 177.331515,22.3162286 L177.331515,22.3162286 Z M173.74423,14.1687429 C173.74423,13.5704571 174.221871,13.1549143 174.784902,13.1549143 C175.347933,13.1549143 175.837944,13.5704571 175.837944,14.1687429 C175.837944,14.8040571 175.347933,15.1827429 174.784902,15.1827429 C174.221871,15.1827429 173.74423,14.8040571 173.74423,14.1687429 L173.74423,14.1687429 Z M173.0221,22.3529143 L173.0221,22.2797143 L173.903501,21.5712 L173.903501,17.2470857 L173.0221,16.4286857 L173.0221,16.3553143 L175.654104,16.3553143 L175.654104,21.5712 L176.535505,22.2797143 L176.535505,22.3529143 L173.0221,22.3529143 Z M166.251291,17.1248571 L165.443255,16.4286857 L165.443255,16.3553143 L168.993428,16.3553143 L168.993428,16.4286857 L168.112027,17.1126857 L169.630167,21.1803429 L171.184903,17.076 L170.266734,16.4286857 L170.266734,16.3553143 L172.617308,16.3553143 L172.617308,16.4286857 L171.784874,17.1005143 L169.630167,22.3529143 L168.405999,22.3529143 L166.251291,17.1248571 Z M163.263462,21.2413714 L163.263462,19.0794857 L161.537085,19.8245143 C161.414754,20.0077714 161.280052,20.2642286 161.280052,20.6429143 C161.280052,21.2780571 161.647389,21.6810857 162.271757,21.6810857 C162.651464,21.6810857 163.018457,21.4734857 163.263462,21.2413714 L163.263462,21.2413714 Z M163.312429,21.5466857 C162.871557,21.9987429 162.173996,22.4751429 161.304622,22.4751429 C160.129249,22.4751429 159.50488,21.6934286 159.50488,20.9115429 C159.50488,20.3374286 159.786482,19.8610286 159.98252,19.6412571 L163.263462,18.7861714 L163.263462,18.5784 C163.263462,17.1615429 162.932894,16.6239429 161.76972,16.6239429 L161.622991,16.6239429 L159.97015,18.5295429 L159.921183,18.5295429 L159.921183,16.3553143 C160.851551,16.2942857 161.696355,16.2330857 162.565558,16.2330857 C164.793973,16.2330857 165.026264,17.4425143 165.026264,19.1036571 L165.026264,21.5712 L165.907837,22.2797143 L165.907837,22.3529143 L163.312429,22.3529143 L163.312429,21.5466857 Z M152.134272,13.6801714 L152.134272,21.8886857 L153.493141,21.8886857 C155.672246,21.8886857 156.737144,20.2764 156.737144,17.8088571 C156.737144,15.4758857 155.733412,13.6801714 152.905369,13.6801714 L152.134272,13.6801714 Z M158.659388,17.6746286 C158.659388,20.7528 156.272046,22.3529143 153.370639,22.3529143 L149.440759,22.3529143 L149.440759,22.2797143 L150.32216,21.5346857 L150.32216,14.0345143 L149.440759,13.2648 L149.440759,13.1916 L153.089037,13.1916 C156.663779,13.1916 158.659388,14.9382857 158.659388,17.6746286 L158.659388,17.6746286 Z M144.016621,18.4076571 C144.016621,17.5647429 143.698079,16.5752571 142.890042,16.5752571 C142.327011,16.5752571 142.045238,17.2957714 142.045238,18.1265143 C142.045238,18.9937714 142.412574,19.9589143 143.134876,19.9589143 C143.698079,19.9589143 144.016621,19.2870857 144.016621,18.4076571 L144.016621,18.4076571 Z M145.04475,23.4646286 C145.04475,23.2446857 144.946988,23.0247429 144.751121,22.8536571 L141.567941,22.8536571 C141.371902,23.0612571 141.237373,23.3424 141.237373,23.6477143 C141.237373,24.3564 142.05778,24.8324571 142.988148,24.8324571 C144.077442,24.8324571 145.04475,24.3684 145.04475,23.4646286 L145.04475,23.4646286 Z M142.902413,25.2846857 C141.702642,25.2846857 140.515242,24.8813143 139.902901,24.0509143 C140.160105,23.4522857 140.613004,22.9880571 141.212975,22.6947429 L140.098939,21.7789714 L140.098939,21.6445714 C140.355972,20.9849143 140.83344,20.3374286 141.494405,19.9710857 C140.857838,19.6045714 140.454077,18.9937714 140.454077,18.2854286 C140.454077,17.0271429 141.714841,16.2330857 143.110479,16.2330857 C143.661311,16.2330857 144.138952,16.3674857 144.530685,16.5629143 L146.660995,16.0376571 L146.660995,17.3813143 L146.56289,17.3813143 L145.032551,16.8440571 L144.959187,16.9050857 C145.301782,17.2836 145.583556,17.7478286 145.583556,18.3219429 C145.583556,19.5802286 144.273653,20.3252571 142.914784,20.3252571 C142.522878,20.3252571 142.155542,20.2518857 141.825145,20.13 C141.494405,20.3374286 141.384445,20.6064 141.384445,20.8628571 C141.384445,21.1681714 141.604709,21.4246286 142.19231,21.4246286 L145.718085,21.4246286 C146.171156,21.7664571 146.416162,22.2918857 146.416162,22.7804571 C146.416162,24.5518286 144.420381,25.2846857 142.902413,25.2846857 L142.902413,25.2846857 Z M135.237833,22.3529143 L131.724256,22.3529143 L131.724256,22.2797143 L132.605657,21.5957143 L132.605657,17.3324571 L131.724256,16.4286857 L131.724256,16.3553143 L134.356432,16.3553143 L134.356432,17.1615429 L134.393028,17.1372 C135.543832,16.5385714 136.241736,16.2819429 136.95184,16.2819429 C138.225146,16.2819429 138.714814,16.8682286 138.714814,18.5905714 L138.714814,21.5957143 L139.596214,22.2797143 L139.596214,22.3529143 L136.082638,22.3529143 L136.082638,22.2797143 L136.964039,21.5957143 L136.964039,18.5173714 C136.964039,17.5647429 136.694807,17.1615429 135.886771,17.1615429 C135.360335,17.1615429 134.895066,17.3446286 134.393028,17.5647429 L134.356432,17.5769143 L134.356432,21.5957143 L135.237833,22.2797143 L135.237833,22.3529143 Z M128.394003,14.1687429 C128.394003,13.5704571 128.871472,13.1549143 129.434675,13.1549143 C129.997707,13.1549143 130.487546,13.5704571 130.487546,14.1687429 C130.487546,14.8040571 129.997707,15.1827429 129.434675,15.1827429 C128.871472,15.1827429 128.394003,14.8040571 128.394003,14.1687429 L128.394003,14.1687429 Z M127.671873,22.3529143 L127.671873,22.2797143 L128.553274,21.5712 L128.553274,17.2470857 L127.671873,16.4286857 L127.671873,16.3553143 L130.303706,16.3553143 L130.303706,21.5712 L131.185278,22.2797143 L131.185278,22.3529143 L127.671873,22.3529143 Z M122.822965,22.3529143 L119.309388,22.3529143 L119.309388,22.2797143 L120.190961,21.5957143 L120.190961,17.3324571 L119.309388,16.4286857 L119.309388,16.3553143 L121.941564,16.3553143 L121.941564,17.1615429 L121.978161,17.1372 C123.129136,16.5385714 123.826869,16.2819429 124.536972,16.2819429 C125.810279,16.2819429 126.300118,16.8682286 126.300118,18.5905714 L126.300118,21.5957143 L127.181519,22.2797143 L127.181519,22.3529143 L123.66777,22.3529143 L123.66777,22.2797143 L124.549171,21.5957143 L124.549171,18.5173714 C124.549171,17.5647429 124.27994,17.1615429 123.472075,17.1615429 C122.945468,17.1615429 122.480198,17.3446286 121.978161,17.5647429 L121.941564,17.5769143 L121.941564,21.5957143 L122.822965,22.2797143 L122.822965,22.3529143 Z M115.979136,14.1687429 C115.979136,13.5704571 116.456776,13.1549143 117.019808,13.1549143 C117.582839,13.1549143 118.072678,13.5704571 118.072678,14.1687429 C118.072678,14.8040571 117.582839,15.1827429 117.019808,15.1827429 C116.456776,15.1827429 115.979136,14.8040571 115.979136,14.1687429 L115.979136,14.1687429 Z M115.257006,22.3529143 L115.257006,22.2797143 L116.138407,21.5712 L116.138407,17.2470857 L115.257006,16.4286857 L115.257006,16.3553143 L117.88901,16.3553143 L117.88901,21.5712 L118.770411,22.2797143 L118.770411,22.3529143 L115.257006,22.3529143 Z M106.992454,13.9856571 L106.12308,13.2648 L106.12308,13.1916 L109.734762,13.1916 L109.734762,13.2648 L108.85319,13.9856571 L111.289327,20.9604 L113.713609,14.1077143 L112.709534,13.2648 L112.709534,13.1916 L115.35408,13.1916 L115.35408,13.2648 L114.313237,14.0953714 L111.314068,22.3529143 L110.05296,22.3529143 L106.992454,13.9856571 Z M171.18559,9.19474286 L167.439379,9.19474286 L167.439379,9.12137143 L168.320779,8.41285714 L168.320779,4.0764 L167.439379,3.27034286 L167.439379,3.19697143 L170.010045,3.19697143 L170.010045,4.35754286 L170.034615,4.35754286 C170.475315,3.58782857 171.344689,3.11142857 172.37299,3.07491429 L172.37299,5.15142857 L172.324024,5.15142857 L170.720321,4.23531429 C170.365183,4.39422857 170.071211,4.71171429 170.071211,5.26131429 L170.071211,8.41285714 L171.18559,9.12137143 L171.18559,9.19474286 Z M161.929506,9.26794286 C160.472359,9.26794286 160.2033,8.52291429 160.2033,6.98365714 L160.2033,3.95434286 L159.321727,3.27034286 L159.321727,3.19697143 L161.953903,3.17262857 L161.953903,7.05702857 C161.953903,8.00982857 162.235505,8.41285714 163.04337,8.41285714 C163.484242,8.41285714 163.888175,8.25411429 164.341074,8.03417143 L164.341074,3.95434286 L163.386309,3.27034286 L163.386309,3.19697143 L166.104219,3.17262857 L166.104219,8.40068571 L166.98562,9.12137143 L166.98562,9.19474286 L164.402239,9.19474286 L164.402239,8.43754286 L164.353444,8.46171429 C163.545579,8.98714286 162.786337,9.26794286 161.929506,9.26794286 L161.929506,9.26794286 Z M154.999598,9.19474286 L151.49822,9.19474286 L151.49822,9.12137143 L152.379621,8.43754286 L152.379621,1.0104 L151.49822,0.106628571 L151.49822,0.0332571429 L154.117854,0.0332571429 L154.117854,3.96651429 L154.16682,3.93 C154.974857,3.39257143 155.880999,3.07491429 156.75003,3.07491429 C158.231402,3.07491429 158.513003,3.83211429 158.513003,5.39571429 L158.513003,8.43754286 L159.394404,9.12137143 L159.394404,9.19474286 L155.880999,9.19474286 L155.880999,9.12137143 L156.762228,8.43754286 L156.762228,5.31017143 C156.762228,4.35754286 156.492997,3.96651429 155.697159,3.96651429 C155.134128,3.96651429 154.632262,4.10091429 154.117854,4.38188571 L154.117854,8.43754286 L154.999598,9.12137143 L154.999598,9.19474286 Z M148.938721,9.3168 C147.518858,9.3168 147.286223,8.40068571 147.286223,7.21594286 L147.286223,3.7224 L146.343485,3.7224 L146.343485,3.19697143 L147.286223,3.19697143 L148.828761,1.548 L149.036826,1.548 L149.036826,3.19697143 L150.971098,3.19697143 L150.971098,3.7224 L149.036826,3.7224 L149.036826,7.42337143 C149.036826,8.14422857 149.306057,8.44954286 150.004134,8.44954286 C150.236597,8.44954286 150.677297,8.37634286 151.069203,8.21742857 L151.069203,8.40068571 C150.554966,8.95045714 149.673394,9.3168 148.938721,9.3168 L148.938721,9.3168 Z M144.641333,9.19474286 L140.895121,9.19474286 L140.895121,9.12137143 L141.776522,8.41285714 L141.776522,4.0764 L140.895121,3.27034286 L140.895121,3.19697143 L143.46596,3.19697143 L143.46596,4.35754286 L143.490357,4.35754286 C143.931058,3.58782857 144.800432,3.11142857 145.828733,3.07491429 L145.828733,5.15142857 L145.779938,5.15142857 L144.176235,4.23531429 C143.821097,4.39422857 143.527125,4.71171429 143.527125,5.26131429 L143.527125,8.41285714 L144.641333,9.12137143 L144.641333,9.19474286 Z M135.164812,1.53582857 L133.756976,5.51777143 L136.658383,5.51777143 L135.164812,1.53582857 Z M134.038578,9.19474286 L131.014496,9.19474286 L131.014496,9.12137143 L132.116333,8.31531429 L134.883382,0.790628571 L134.601609,0.0332571429 L136.462516,0.0332571429 L139.706862,8.41285714 L140.588435,9.12137143 L140.588435,9.19474286 L136.866621,9.19474286 L136.866621,9.12137143 L137.735651,8.41285714 L136.85425,6.05537143 L133.560937,6.05537143 L132.765443,8.31531429 L134.038578,9.12137143 L134.038578,9.19474286 Z M125.08832,6.21411429 L127.328763,5.42022857 C127.243028,4.23531429 126.900433,3.45342857 126.300461,3.45342857 C125.455657,3.45342857 125.039354,4.36971429 125.039354,5.50577143 C125.039354,5.75005714 125.051724,5.99434286 125.08832,6.21411429 L125.08832,6.21411429 Z M123.251811,6.27514286 C123.251811,4.52845714 124.427184,3.07491429 126.373826,3.07491429 C127.879767,3.07491429 128.8713,3.96651429 129.177471,5.66451429 L128.699831,5.76222857 L125.137287,6.49508571 C125.382293,7.59462857 126.104595,8.364 127.475663,8.364 C128.026495,8.364 128.528361,8.24177143 129.0182,7.97314286 L129.0182,8.13188571 C128.357236,8.80354286 127.475663,9.3168 126.263693,9.3168 C124.488693,9.3168 123.251811,8.02217143 123.251811,6.27514286 L123.251811,6.27514286 Z M118.342081,9.19474286 L114.840703,9.19474286 L114.840703,9.12137143 L115.722104,8.43754286 L115.722104,1.0104 L114.840703,0.106628571 L114.840703,0.0332571429 L117.460336,0.0332571429 L117.460336,3.96651429 L117.509475,3.93 C118.317512,3.39257143 119.223482,3.07491429 120.092684,3.07491429 C121.574056,3.07491429 121.855486,3.83211429 121.855486,5.39571429 L121.855486,8.43754286 L122.736887,9.12137143 L122.736887,9.19474286 L119.223482,9.19474286 L119.223482,9.12137143 L120.104883,8.43754286 L120.104883,5.31017143 C120.104883,4.35754286 119.835652,3.96651429 119.039814,3.96651429 C118.476611,3.96651429 117.974916,4.10091429 117.460336,4.38188571 L117.460336,8.43754286 L118.342081,9.12137143 L118.342081,9.19474286 Z M112.171072,9.19474286 L108.596157,9.19474286 L108.596157,9.12137143 L109.47773,8.37634286 L109.47773,0.534 L108.118517,0.534 L106.429079,2.53748571 L106.380113,2.53748571 L106.380113,0.0332571429 L114.386944,0.0332571429 L114.386944,2.53748571 L114.337978,2.53748571 L112.648368,0.534 L111.289327,0.534 L111.289327,8.37634286 L112.171072,9.12137143 L112.171072,9.19474286 Z M79.0759261,0 L65.8645333,0 L53.8149404,24.9586286 L41.1569574,0.0012 L30.6744713,0.0012 L48.954521,35.8714286 L49.1572604,35.8714286 L66.2007715,0.563485714 L78.0129188,0.563485714 C86.1151068,0.563485714 90.3179977,6.76354286 90.3179977,17.6274857 C90.3179977,30.2338286 86.1151068,35.3079429 78.7733633,35.3079429 L75.6326207,35.3237143 L75.6326207,13.3373143 L66.0124644,13.3373143 L66.0124644,35.8714286 L80.3416729,35.8714286 C90.2664538,35.8714286 100.444315,30.4388571 100.444315,17.6274857 C100.444315,5.79068571 90.874672,0 79.0759261,0 L79.0759261,0 Z M17.5204641,0 L35.8005137,35.8702286 L25.3180277,35.8702286 L12.6600447,10.9128 L0.608218203,35.8702286 L4.26325641e-14,35.8702286 L17.3178965,0 L17.5204641,0 Z" id="logo"></path>
        </g>
    </g>
</svg>